<mxfile host="app.diagrams.net" modified="2023-11-05T20:44:42.416Z" agent="Mozilla/5.0 (Windows NT 10.0; Win64; x64) AppleWebKit/537.36 (KHTML, like Gecko) Chrome/119.0.0.0 Safari/537.36 Edg/119.0.0.0" etag="175J4ALqj7nAJCYVx2fV" version="22.0.8" type="google">
  <diagram name="Page-1" id="YTZD0y38YPvo73WkIYqt">
    <mxGraphModel grid="1" page="1" gridSize="10" guides="1" tooltips="1" connect="1" arrows="1" fold="1" pageScale="1" pageWidth="850" pageHeight="1100" math="0" shadow="0">
      <root>
        <mxCell id="0" />
        <mxCell id="1" parent="0" />
        <mxCell id="GxKVPJFUKURO31rQEqN7-34" value="" style="ellipse;whiteSpace=wrap;html=1;aspect=fixed;" vertex="1" parent="1">
          <mxGeometry x="290" y="130" width="600" height="600" as="geometry" />
        </mxCell>
        <mxCell id="GxKVPJFUKURO31rQEqN7-35" value="&lt;span style=&quot;font-size: 14px;&quot;&gt;F&lt;sub&gt;BCDU&lt;/sub&gt;&lt;/span&gt;" style="ellipse;whiteSpace=wrap;html=1;aspect=fixed;fillColor=#A9C4EB;" vertex="1" parent="1">
          <mxGeometry x="610" y="409.5" width="80" height="80" as="geometry" />
        </mxCell>
        <mxCell id="GxKVPJFUKURO31rQEqN7-37" value="&lt;font style=&quot;font-size: 14px;&quot;&gt;Overheating&lt;/font&gt;" style="ellipse;whiteSpace=wrap;html=1;aspect=fixed;fillColor=#FFFFFF;strokeColor=#F19C99;strokeWidth=2;dashed=1;dashPattern=8 8;" vertex="1" parent="1">
          <mxGeometry x="425" y="244.5" width="50" height="50" as="geometry" />
        </mxCell>
        <mxCell id="GxKVPJFUKURO31rQEqN7-38" value="&lt;font style=&quot;font-size: 14px;&quot;&gt;H&lt;/font&gt;&lt;font size=&quot;1&quot; style=&quot;&quot;&gt;&lt;sub&gt;BCDU&lt;/sub&gt;&lt;/font&gt;" style="ellipse;whiteSpace=wrap;html=1;aspect=fixed;fillColor=#CCCCCC;" vertex="1" parent="1">
          <mxGeometry x="480" y="320" width="80" height="80" as="geometry" />
        </mxCell>
        <mxCell id="GxKVPJFUKURO31rQEqN7-39" value="" style="shape=flexArrow;endArrow=classic;html=1;rounded=0;width=0.3225806451612903;endSize=1.064804469273743;endWidth=2.980717246350694;strokeColor=#F19C99;" edge="1" parent="1" source="GxKVPJFUKURO31rQEqN7-37" target="GxKVPJFUKURO31rQEqN7-38">
          <mxGeometry width="50" height="50" relative="1" as="geometry">
            <mxPoint x="1145.0033022044959" y="339.6409081756615" as="sourcePoint" />
            <mxPoint x="1191" y="333" as="targetPoint" />
          </mxGeometry>
        </mxCell>
        <mxCell id="GxKVPJFUKURO31rQEqN7-40" value="" style="shape=flexArrow;endArrow=classic;html=1;rounded=0;width=0.3225806451612903;endSize=1.064804469273743;endWidth=2.980717246350694;strokeColor=#F19C99;" edge="1" parent="1" source="GxKVPJFUKURO31rQEqN7-46" target="GxKVPJFUKURO31rQEqN7-38">
          <mxGeometry width="50" height="50" relative="1" as="geometry">
            <mxPoint x="580" y="400" as="sourcePoint" />
            <mxPoint x="640" y="310" as="targetPoint" />
          </mxGeometry>
        </mxCell>
        <mxCell id="GxKVPJFUKURO31rQEqN7-41" value="&lt;font style=&quot;font-size: 14px;&quot;&gt;Shortcircut&lt;/font&gt;" style="ellipse;whiteSpace=wrap;html=1;aspect=fixed;fillColor=#FFFFFF;strokeColor=#F19C99;strokeWidth=2;dashed=1;dashPattern=8 8;" vertex="1" parent="1">
          <mxGeometry x="520" y="220" width="50" height="50" as="geometry" />
        </mxCell>
        <mxCell id="GxKVPJFUKURO31rQEqN7-42" value="" style="shape=flexArrow;endArrow=classic;html=1;rounded=0;width=0.3225806451612903;endSize=1.064804469273743;endWidth=2.980717246350694;strokeColor=#F19C99;" edge="1" parent="1" source="GxKVPJFUKURO31rQEqN7-41" target="GxKVPJFUKURO31rQEqN7-38">
          <mxGeometry width="50" height="50" relative="1" as="geometry">
            <mxPoint x="1277" y="254" as="sourcePoint" />
            <mxPoint x="1252" y="294" as="targetPoint" />
          </mxGeometry>
        </mxCell>
        <mxCell id="GxKVPJFUKURO31rQEqN7-43" value="&lt;font style=&quot;font-size: 10px;&quot;&gt;Agent Intervention&lt;/font&gt;" style="ellipse;whiteSpace=wrap;html=1;aspect=fixed;fillColor=#FFFFFF;strokeColor=#F19C99;strokeWidth=2;dashed=1;dashPattern=8 8;direction=north;" vertex="1" parent="1">
          <mxGeometry x="580" y="270" width="50" height="50" as="geometry" />
        </mxCell>
        <mxCell id="GxKVPJFUKURO31rQEqN7-44" value="" style="shape=flexArrow;endArrow=classic;html=1;rounded=0;width=0.3225806451612903;endSize=1.064804469273743;endWidth=2.980717246350694;strokeColor=#F19C99;" edge="1" parent="1" source="GxKVPJFUKURO31rQEqN7-43" target="GxKVPJFUKURO31rQEqN7-38">
          <mxGeometry width="50" height="50" relative="1" as="geometry">
            <mxPoint x="579" y="404" as="sourcePoint" />
            <mxPoint x="614" y="375" as="targetPoint" />
          </mxGeometry>
        </mxCell>
        <mxCell id="GxKVPJFUKURO31rQEqN7-46" value="&lt;font style=&quot;font-size: 14px;&quot;&gt;Aging&lt;/font&gt;" style="ellipse;whiteSpace=wrap;html=1;aspect=fixed;fillColor=#FFFFFF;strokeColor=#F19C99;strokeWidth=2;dashed=1;dashPattern=8 8;" vertex="1" parent="1">
          <mxGeometry x="380" y="325" width="50" height="50" as="geometry" />
        </mxCell>
        <mxCell id="GxKVPJFUKURO31rQEqN7-47" value="&lt;span style=&quot;font-size: 14px;&quot;&gt;F&lt;sub&gt;SSU&lt;/sub&gt;&lt;/span&gt;" style="ellipse;whiteSpace=wrap;html=1;aspect=fixed;fillColor=#A9C4EB;" vertex="1" parent="1">
          <mxGeometry x="340" y="470" width="80" height="80" as="geometry" />
        </mxCell>
        <mxCell id="GxKVPJFUKURO31rQEqN7-48" value="" style="endArrow=classic;html=1;rounded=0;" edge="1" parent="1" source="GxKVPJFUKURO31rQEqN7-47" target="GxKVPJFUKURO31rQEqN7-49">
          <mxGeometry width="50" height="50" relative="1" as="geometry">
            <mxPoint x="520" y="480" as="sourcePoint" />
            <mxPoint x="570" y="430" as="targetPoint" />
          </mxGeometry>
        </mxCell>
        <mxCell id="GxKVPJFUKURO31rQEqN7-49" value="&lt;font style=&quot;font-size: 10px;&quot;&gt;Overcharging&lt;/font&gt;" style="ellipse;whiteSpace=wrap;html=1;aspect=fixed;fillColor=#FFFFFF;strokeColor=#F19C99;strokeWidth=2;dashed=1;dashPattern=8 8;direction=north;" vertex="1" parent="1">
          <mxGeometry x="450" y="424.5" width="50" height="50" as="geometry" />
        </mxCell>
        <mxCell id="GxKVPJFUKURO31rQEqN7-50" value="" style="shape=flexArrow;endArrow=classic;html=1;rounded=0;width=0.3225806451612903;endSize=1.064804469273743;endWidth=2.980717246350694;strokeColor=#F19C99;" edge="1" parent="1" source="GxKVPJFUKURO31rQEqN7-49" target="GxKVPJFUKURO31rQEqN7-38">
          <mxGeometry width="50" height="50" relative="1" as="geometry">
            <mxPoint x="1120" y="386" as="sourcePoint" />
            <mxPoint x="1180" y="388" as="targetPoint" />
          </mxGeometry>
        </mxCell>
        <mxCell id="GxKVPJFUKURO31rQEqN7-51" value="" style="endArrow=classic;html=1;rounded=0;" edge="1" parent="1" source="GxKVPJFUKURO31rQEqN7-38" target="GxKVPJFUKURO31rQEqN7-35">
          <mxGeometry width="50" height="50" relative="1" as="geometry">
            <mxPoint x="570" y="450" as="sourcePoint" />
            <mxPoint x="620" y="400" as="targetPoint" />
          </mxGeometry>
        </mxCell>
        <mxCell id="GxKVPJFUKURO31rQEqN7-52" value="&lt;span style=&quot;font-size: 14px;&quot;&gt;F&lt;/span&gt;&lt;span style=&quot;font-size: 11.6667px;&quot;&gt;&lt;sub&gt;Battery&lt;/sub&gt;&lt;/span&gt;" style="ellipse;whiteSpace=wrap;html=1;aspect=fixed;fillColor=#A9C4EB;" vertex="1" parent="1">
          <mxGeometry x="660" y="560" width="80" height="80" as="geometry" />
        </mxCell>
        <mxCell id="GxKVPJFUKURO31rQEqN7-56" value="&lt;font style=&quot;font-size: 14px;&quot;&gt;V&lt;sub&gt;Voltage_Moniter&lt;/sub&gt;&lt;/font&gt;" style="ellipse;whiteSpace=wrap;html=1;aspect=fixed;fillColor=#FFFFFF;strokeColor=#080505;strokeWidth=1;" vertex="1" parent="1">
          <mxGeometry x="520" y="510" width="80" height="80" as="geometry" />
        </mxCell>
        <mxCell id="GxKVPJFUKURO31rQEqN7-57" value="" style="endArrow=classic;startArrow=classic;html=1;rounded=0;" edge="1" parent="1" source="GxKVPJFUKURO31rQEqN7-56" target="GxKVPJFUKURO31rQEqN7-35">
          <mxGeometry width="50" height="50" relative="1" as="geometry">
            <mxPoint x="540" y="530" as="sourcePoint" />
            <mxPoint x="590" y="480" as="targetPoint" />
          </mxGeometry>
        </mxCell>
        <mxCell id="GxKVPJFUKURO31rQEqN7-58" value="" style="endArrow=classic;startArrow=classic;html=1;rounded=0;" edge="1" parent="1" source="GxKVPJFUKURO31rQEqN7-52" target="GxKVPJFUKURO31rQEqN7-56">
          <mxGeometry width="50" height="50" relative="1" as="geometry">
            <mxPoint x="520" y="690" as="sourcePoint" />
            <mxPoint x="570" y="640" as="targetPoint" />
          </mxGeometry>
        </mxCell>
        <mxCell id="GxKVPJFUKURO31rQEqN7-59" value="&lt;font size=&quot;1&quot;&gt;Radiation Loss&lt;/font&gt;" style="ellipse;whiteSpace=wrap;html=1;aspect=fixed;fillColor=#FFFFFF;strokeColor=#F19C99;strokeWidth=2;dashed=1;dashPattern=8 8;" vertex="1" parent="1">
          <mxGeometry x="450" y="600" width="50" height="50" as="geometry" />
        </mxCell>
        <mxCell id="GxKVPJFUKURO31rQEqN7-61" value="" style="shape=flexArrow;endArrow=classic;html=1;rounded=0;width=0.3225806451612903;endSize=1.064804469273743;endWidth=2.980717246350694;strokeColor=#F19C99;" edge="1" parent="1" source="GxKVPJFUKURO31rQEqN7-59" target="GxKVPJFUKURO31rQEqN7-56">
          <mxGeometry width="50" height="50" relative="1" as="geometry">
            <mxPoint x="509" y="388" as="sourcePoint" />
            <mxPoint x="513" y="364" as="targetPoint" />
          </mxGeometry>
        </mxCell>
        <mxCell id="GxKVPJFUKURO31rQEqN7-63" value="&lt;font size=&quot;1&quot;&gt;Eccentric Behavior&amp;nbsp;&lt;/font&gt;" style="ellipse;whiteSpace=wrap;html=1;aspect=fixed;fillColor=#FFFFFF;strokeColor=#F19C99;strokeWidth=2;dashed=1;dashPattern=8 8;" vertex="1" parent="1">
          <mxGeometry x="760" y="260" width="50" height="50" as="geometry" />
        </mxCell>
        <mxCell id="GxKVPJFUKURO31rQEqN7-64" value="" style="shape=flexArrow;endArrow=classic;html=1;rounded=0;width=0.3225806451612903;endSize=1.064804469273743;endWidth=2.980717246350694;strokeColor=#F19C99;" edge="1" parent="1" source="GxKVPJFUKURO31rQEqN7-69" target="GxKVPJFUKURO31rQEqN7-66">
          <mxGeometry width="50" height="50" relative="1" as="geometry">
            <mxPoint x="680" y="394" as="sourcePoint" />
            <mxPoint x="546" y="117" as="targetPoint" />
          </mxGeometry>
        </mxCell>
        <mxCell id="GxKVPJFUKURO31rQEqN7-65" value="" style="shape=flexArrow;endArrow=classic;html=1;rounded=0;width=0.3225806451612903;endSize=1.8800000000000001;endWidth=5.341935483870968;strokeColor=#F19C99;" edge="1" parent="1" source="GxKVPJFUKURO31rQEqN7-63" target="GxKVPJFUKURO31rQEqN7-66">
          <mxGeometry width="50" height="50" relative="1" as="geometry">
            <mxPoint x="329" y="164" as="sourcePoint" />
            <mxPoint x="583" y="138" as="targetPoint" />
          </mxGeometry>
        </mxCell>
        <mxCell id="GxKVPJFUKURO31rQEqN7-66" value="&lt;span style=&quot;font-size: 14px;&quot;&gt;F&lt;sub&gt;software&lt;/sub&gt;&lt;/span&gt;" style="ellipse;whiteSpace=wrap;html=1;aspect=fixed;fillColor=#A9C4EB;" vertex="1" parent="1">
          <mxGeometry x="680" y="310" width="80" height="80" as="geometry" />
        </mxCell>
        <mxCell id="GxKVPJFUKURO31rQEqN7-67" value="&lt;font size=&quot;1&quot;&gt;Radiation Loss&lt;/font&gt;" style="ellipse;whiteSpace=wrap;html=1;aspect=fixed;fillColor=#FFFFFF;strokeColor=#F19C99;strokeWidth=2;dashed=1;dashPattern=8 8;" vertex="1" parent="1">
          <mxGeometry x="660" y="230" width="50" height="50" as="geometry" />
        </mxCell>
        <mxCell id="GxKVPJFUKURO31rQEqN7-68" value="" style="shape=flexArrow;endArrow=classic;html=1;rounded=0;width=0.3225806451612903;endSize=1.8800000000000001;endWidth=5.341935483870968;strokeColor=#F19C99;" edge="1" parent="1" source="GxKVPJFUKURO31rQEqN7-67" target="GxKVPJFUKURO31rQEqN7-66">
          <mxGeometry width="50" height="50" relative="1" as="geometry">
            <mxPoint x="772" y="404" as="sourcePoint" />
            <mxPoint x="753" y="374" as="targetPoint" />
          </mxGeometry>
        </mxCell>
        <mxCell id="GxKVPJFUKURO31rQEqN7-69" value="&lt;font style=&quot;font-size: 10px;&quot;&gt;Bad Update&lt;/font&gt;" style="ellipse;whiteSpace=wrap;html=1;aspect=fixed;fillColor=#FFFFFF;strokeColor=#F19C99;strokeWidth=2;dashed=1;dashPattern=8 8;direction=north;" vertex="1" parent="1">
          <mxGeometry x="790" y="359.5" width="50" height="50" as="geometry" />
        </mxCell>
        <mxCell id="GxKVPJFUKURO31rQEqN7-70" value="" style="endArrow=classic;html=1;rounded=0;" edge="1" parent="1" source="GxKVPJFUKURO31rQEqN7-66" target="GxKVPJFUKURO31rQEqN7-35">
          <mxGeometry width="50" height="50" relative="1" as="geometry">
            <mxPoint x="972" y="403" as="sourcePoint" />
            <mxPoint x="1011" y="432" as="targetPoint" />
          </mxGeometry>
        </mxCell>
        <mxCell id="GxKVPJFUKURO31rQEqN7-71" value="&lt;b&gt;&lt;font style=&quot;font-size: 18px;&quot;&gt;Battery Charge Discharge Unit&lt;/font&gt;&lt;/b&gt;" style="text;html=1;strokeColor=none;fillColor=none;align=center;verticalAlign=middle;whiteSpace=wrap;rounded=0;" vertex="1" parent="1">
          <mxGeometry x="510" y="170" width="140" height="30" as="geometry" />
        </mxCell>
      </root>
    </mxGraphModel>
  </diagram>
</mxfile>
